<?xml version="1.0" encoding="UTF-8"?>
<svg version="1.1" xmlns="http://www.w3.org/2000/svg" width="70" height="70" viewBox="0 0 300 300">
<path d="M0 0 C14.85 0 29.7 0 45 0 C45 4.95 45 9.9 45 15 C50.28 15 55.56 15 61 15 C61 10.05 61 5.1 61 0 C75.85 0 90.7 0 106 0 C106 4.95 106 9.9 106 15 C110.95 15 115.9 15 121 15 C121 29.85 121 44.7 121 60 C116.05 60 111.1 60 106 60 C106 64.95 106 69.9 106 75 C101.05 75 96.1 75 91 75 C91 79.95 91 84.9 91 90 C86.05 90 81.1 90 76 90 C76 94.95 76 99.9 76 105 C71.05 105 66.1 105 61 105 C61 109.95 61 114.9 61 120 C55.72 120 50.44 120 45 120 C45 115.05 45 110.1 45 105 C40.05 105 35.1 105 30 105 C30 100.05 30 95.1 30 90 C25.05 90 20.1 90 15 90 C15 85.05 15 80.1 15 75 C10.05 75 5.1 75 0 75 C0 70.05 0 65.1 0 60 C-4.95 60 -9.9 60 -15 60 C-15 45.15 -15 30.3 -15 15 C-10.05 15 -5.1 15 0 15 C0 10.05 0 5.1 0 0 Z " fill="#ff5041" transform="translate(27,20)"/>
</svg>
